<?xml version="1.0" encoding="UTF-8"?>
<svg width="22px" height="13px" viewBox="0 0 22 13" version="1.1" xmlns="http://www.w3.org/2000/svg" xmlns:xlink="http://www.w3.org/1999/xlink">
    <!-- Generator: Sketch 48.1 (47250) - http://www.bohemiancoding.com/sketch -->
    <title>downselect</title>
    <desc>Created with Sketch.</desc>
    <defs></defs>
    <g id="Page-1" stroke="none" stroke-width="1" fill="none" fill-rule="evenodd">
        <path d="M5.34118876,7.33667687 C5.3804011,7.3758892 5.42174096,7.41171698 5.46484222,7.44415881 L14.6784421,16.6577587 C15.1345291,17.1138457 15.8741188,17.1137192 16.3282935,16.6595444 C16.7833943,16.2044436 16.783624,15.4668092 16.3265078,15.009693 L7.82137309,6.50455826 L16.3265078,-2.00057646 C16.783624,-2.4576927 16.7833943,-3.19532713 16.3282935,-3.65042791 C15.8741188,-4.10460265 15.1345291,-4.10472919 14.6784421,-3.64864217 L5.46484222,5.5649577 C5.42174096,5.59739953 5.3804011,5.63322731 5.34118876,5.67243965 C5.11161815,5.90201026 4.99779346,6.20347405 5.00003239,6.50455826 C4.99779346,6.80564247 5.11161815,7.10710625 5.34118876,7.33667687 Z" id="downselect" fill="#999999" transform="translate(10.834741, 6.504558) rotate(-90.000000) translate(-10.834741, -6.504558) "></path>
    </g>
</svg>